<svg xmlns="http://www.w3.org/2000/svg" viewBox="0 0 308.24 270.55"><defs><style>.cls-1{fill:#f4a182;}.cls-2{fill:#f5a587;}.cls-3{fill:#f5a788;}</style></defs><g id="Calque_2" data-name="Calque 2"><g id="Layer_1" data-name="Layer 1"><path class="cls-1" d="M122.46,236.49q-9.34,16.9-18.71,33.79l-10.38-1.37Q104,250.48,114.58,232A67.62,67.62,0,0,0,122.46,236.49Z"/><path class="cls-1" d="M110,228.79q-11.7,20.88-23.39,41.76c-2.76-.18-5.53-.36-8.3-.56Q91.15,246.8,104,223.61A63.42,63.42,0,0,0,110,228.79Z"/><path class="cls-2" d="M161.72,219c-.78.09-1.54.2-2.31.27-.3,0-.61.07-.92.09s-.9.05-1.34.07l1.41-.11c.8-.07,1.56-.14,2.31-.23h0Z"/><path class="cls-2" d="M151.43,219.4c-1.21,0-2.43-.13-3.68-.29C148.92,219.24,150.16,219.33,151.43,219.4Z"/><path class="cls-3" d="M186.22,236.28a69.8,69.8,0,0,1-31.92,7.21.25.25,0,0,1-.17,0,70,70,0,0,1-31.67-7,67.62,67.62,0,0,1-7.88-4.46c-1.39-.9-2.75-1.84-4.07-2.84-.17-.13-.34-.25-.51-.4a63.42,63.42,0,0,1-6-5.18c-26.1-25.09-23.74-61.47-23.61-63.36q-2.44-3-4.92-6a97.37,97.37,0,0,0,7.79,45.86,91.67,91.67,0,0,0,15.18,23.75c-1,2.47-2.07,4.92-3.12,7.38a96.31,96.31,0,0,1-21.8-35.63,101.1,101.1,0,0,1-3.89-50A151.35,151.35,0,0,1,44.71,99.37a158.34,158.34,0,0,1-6.63-70A182.55,182.55,0,0,0,15.89,74,181.17,181.17,0,0,0,37.3,124.76,173.68,173.68,0,0,0,63,157.11c-.64,2.87-1.29,5.73-1.93,8.61a151.56,151.56,0,0,1-21.81-22.53A160.76,160.76,0,0,1,11.86,89.81a168.18,168.18,0,0,0-3.37,25.94,165.91,165.91,0,0,0,.28,21.89A164.48,164.48,0,0,0,38.18,166a161,161,0,0,0,25.6,15.59c.86,3.62,1.73,7.27,2.59,10.91a196,196,0,0,1-24.62-13.59c-6.74-4.4-14.16-9.29-22.57-17.56-3.68-3.62-6.55-6.91-8.56-9.32a62.54,62.54,0,0,0,3.32,21.29,59.45,59.45,0,0,0,6.23,12.89A189.8,189.8,0,0,0,50.8,198.75a186.41,186.41,0,0,0,20,5q1.68,4.71,3.38,9.43a190,190,0,0,1-26.93-6.36,188.86,188.86,0,0,1-22.79-8.8Q31,209.34,37.56,220.6l42,1.62c1.68,2.66,3.38,5.32,5.06,8l-38.55,1.24,11.87,14.12c4.57-.93,9.34-2.05,14.28-3.37,6.15-1.66,11.93-3.48,17.27-5.36q-3.12,5.17-6.23,10.38L56.07,254.1C44.79,243.24,7.47,204.61,1,142.78-4.1,94.73,12.26,58.27,16,50.24A164.65,164.65,0,0,1,52.36,0c-3.8,13.7-13.17,54.18,3.25,100.6a159.73,159.73,0,0,0,47.88,69.21C103.71,173,105,188.65,116,202a47.32,47.32,0,0,0,5.74,5.88l.07.07a49.24,49.24,0,0,0,4.62,3.53,46.26,46.26,0,0,0,7.64,4.15,46.94,46.94,0,0,0,8.8,2.77c.66.12,1.35.25,2.1.37a13.82,13.82,0,0,0,1.51.23l1.28.16c1.25.16,2.47.25,3.68.29.68,0,1.39,0,2.11,0s1.49,0,2.24,0c.46,0,.91,0,1.37-.06s.89,0,1.34-.07.62-.05.92-.09a23,23,0,0,0,2.31-.27,6,6,0,0,0,1-.14c.34,0,.68-.11,1-.16l1.15-.21a47.15,47.15,0,0,0,9.56-3l4.35,7.7c-.81.39-1.65.77-2.5,1.13a54.4,54.4,0,0,1-22.19,4.19h0a54.43,54.43,0,0,1-22.19-4.19c-.73-.31-1.46-.63-2.16-1a52.93,52.93,0,0,1-7.64-4.41,53.52,53.52,0,0,1-4.6-3.57,55.68,55.68,0,0,1-5.76-5.73c-13.53-15.47-16.64-34.79-16.82-36.1-1.77-2.19-3.91-4.57-4.69-4.11-2.12,1.29,1.53,26.15,19,44.74a62.14,62.14,0,0,0,5.88,5.54c.52.44,1.07.89,1.63,1.32,1,.75,2,1.48,2.94,2.16a58.46,58.46,0,0,0,7.69,4.48,62.1,62.1,0,0,0,26.52,6.15h.46a62,62,0,0,0,26.9-6.33C182.91,230.4,184.58,233.35,186.22,236.28Z"/><path class="cls-1" d="M307.28,142.78c-6.5,61.83-43.83,100.46-55.1,111.32L225,247.21q-3.11-5.21-6.23-10.38c5.35,1.88,11.12,3.7,17.27,5.36,5,1.32,9.71,2.44,14.28,3.37q5.94-7,11.87-14.12l-38.55-1.24q2.55-4,5.06-8,21-.79,42-1.62,6.54-11.28,13.11-22.54a189.51,189.51,0,0,1-22.79,8.8,190.87,190.87,0,0,1-26.92,6.36l3.37-9.43a186.86,186.86,0,0,0,20-5,190.31,190.31,0,0,0,30.64-12.57,59.92,59.92,0,0,0,6.23-12.89A62,62,0,0,0,297.62,152a123.51,123.51,0,0,1-8.56,9.32c-8.4,8.27-15.83,13.16-22.57,17.56a195.33,195.33,0,0,1-24.62,13.59c.87-3.64,1.73-7.29,2.6-10.91A161.45,161.45,0,0,0,270.06,166a165.37,165.37,0,0,0,29.43-28.33,171.38,171.38,0,0,0,.27-21.89,169.33,169.33,0,0,0-3.38-25.94A160.64,160.64,0,0,1,269,143.19a152.58,152.58,0,0,1-21.82,22.53c-.65-2.88-1.29-5.74-1.94-8.61a173.27,173.27,0,0,0,25.69-32.35A180.87,180.87,0,0,0,292.35,74a181.6,181.6,0,0,0-22.19-44.65,158.68,158.68,0,0,1-6.6,70,152.19,152.19,0,0,1-24.93,46.27,101.23,101.23,0,0,1-3.89,50,96.57,96.57,0,0,1-21.8,35.63c-1-2.46-2.09-4.91-3.13-7.38A91.41,91.41,0,0,0,225,200.11a97.4,97.4,0,0,0,7.8-45.86c-1.65,2-3.3,4-4.93,6,.14,1.89,2.5,38.25-23.58,63.35-1.79-3.13-3.55-6.27-5.34-9.4,17.53-18.59,21.18-43.52,19.06-44.81-.79-.46-2.92,1.92-4.67,4.11-.21,1.31-3.32,20.72-16.93,36.18-1.43-2.51-2.86-5.05-4.28-7.57,11.1-13.34,12.41-29.05,12.63-32.3a159.72,159.72,0,0,0,47.9-69.21c16.41-46.42,7-86.9,3.25-100.6a165.16,165.16,0,0,1,36.34,50.24C296,58.27,312.34,94.73,307.28,142.78Z"/><path class="cls-1" d="M214.6,269.46l-9.36.53q-9.5-16.85-19-33.71c-1.64-2.93-3.31-5.88-5-8.83-.82-1.42-1.61-2.85-2.43-4.3l-4.35-7.7L154.4,179.88c-.1-.18-.18-.34-.29-.52q-10,18.1-20.05,36.22a46.26,46.26,0,0,1-7.64-4.15q13.86-24.08,27.69-48.18c.07.13.14.23.21.36l27.3,47.95c1.43,2.5,2.86,5,4.26,7.5h0c.8,1.43,1.61,2.86,2.43,4.27,1.68,3,3.36,5.93,5.06,8.88Q204,250.84,214.6,269.46Z"/><path class="cls-1" d="M230.68,270.28l-9.85-.55Q209.4,249.36,198,229l-5.11-9.11c-.8-1.45-1.62-2.88-2.43-4.3-1.39-2.5-2.8-5-4.2-7.5q-16-28.51-32-57c-.14-.23-.26-.46-.39-.69q-16.08,28.69-32.13,57.4A47.32,47.32,0,0,1,116,202l37.6-67.9c.18.34.39.68.57,1q19,33.51,38,67c1.42,2.52,2.85,5.06,4.28,7.57.85,1.5,1.71,3,2.54,4.52,1.79,3.13,3.55,6.27,5.34,9.4Q217.46,246.93,230.68,270.28Z"/></g></g></svg>